<svg width="352" height="99" viewBox="0 0 352 99" fill="none" xmlns="http://www.w3.org/2000/svg">
<g clip-path="url(#clip0_1_3)">

<path d="M8.04557 23.4084L68.7271 5.37319L70.5522 26.135L23.9352 36.9364L8.04557 23.4084Z" fill="url(#paint0_linear_1_3)"/>
<path d="M8.04557 23.4084L23.9352 36.9364L27.8233 53.4179L20.0849 74.2696L8.04557 23.4084Z" fill="url(#paint1_linear_1_3)"/>
<path d="M19.7793 74.0094L27.5178 53.1577L67.8697 49.0961L64.6388 67.7486L19.7793 74.0094Z" fill="url(#paint2_linear_1_3)"/>
<path d="M85.4785 33.4492H89.1562L91.248 47.4902L96.334 33.4492H99.8203L104.578 46.9434L106.793 33.4492H110.361L106.684 53H103.238L97.8652 37.6602L92.0957 53H88.6914L85.4785 33.4492ZM115.967 43.1699C115.967 47.7181 117.986 49.9922 122.023 49.9922C125.961 49.9922 127.93 47.7181 127.93 43.1699C127.93 38.6947 125.961 36.457 122.023 36.457C117.986 36.457 115.967 38.6947 115.967 43.1699ZM112.207 43.252C112.207 36.6257 115.479 33.3125 122.023 33.3125C128.467 33.3125 131.689 36.6257 131.689 43.252C131.689 49.8418 128.467 53.1367 122.023 53.1367C115.771 53.1367 112.499 49.8418 112.207 43.252ZM135.121 52.9727V33.4492H144.008C148 33.4492 149.996 35.1947 149.996 38.6855C149.996 41.0462 148.442 43.0013 145.334 44.5508L151.527 53H146.961L141.014 44.4824V42.8281C144.477 42.2357 146.209 40.8913 146.209 38.7949C146.209 37.3548 145.398 36.6348 143.775 36.6348H138.812V52.9727H135.121ZM156.873 33.4492V49.8555H164.639V53H153.25V33.4492H156.873ZM175.727 49.8555C179.783 49.8555 181.811 47.4674 181.811 42.6914C181.811 38.6263 179.783 36.5938 175.727 36.5938H171.693V49.8555H175.727ZM168.07 53V33.4492H175.727C182.198 33.4492 185.434 36.5299 185.434 42.6914C185.434 49.5638 182.198 53 175.727 53H168.07ZM210.262 52.1797C208.576 52.8177 206.661 53.1367 204.52 53.1367C197.501 53.1367 193.992 49.7415 193.992 42.9512C193.992 36.5254 197.501 33.3125 204.52 33.3125C206.661 33.3125 208.576 33.6315 210.262 34.2695V37.5508C208.576 36.8216 206.753 36.457 204.793 36.457C200.099 36.457 197.752 38.6217 197.752 42.9512C197.752 47.6452 200.099 49.9922 204.793 49.9922C206.753 49.9922 208.576 49.6276 210.262 48.8984V52.1797ZM216.756 43.1699C216.756 47.7181 218.775 49.9922 222.812 49.9922C226.75 49.9922 228.719 47.7181 228.719 43.1699C228.719 38.6947 226.75 36.457 222.812 36.457C218.775 36.457 216.756 38.6947 216.756 43.1699ZM212.996 43.252C212.996 36.6257 216.268 33.3125 222.812 33.3125C229.257 33.3125 232.479 36.6257 232.479 43.252C232.479 49.8418 229.257 53.1367 222.812 53.1367C216.56 53.1367 213.288 49.8418 212.996 43.252ZM235.91 53V33.4492H239.67L246.301 48.2832L252.795 33.4492H256.418V53H253.068V39.3828L247.764 53H244.674L239.26 39.3828V53H235.91ZM260.52 53V33.4492H269.27C273.262 33.4492 275.258 35.2858 275.258 38.959C275.258 42.9421 272.528 45.3529 267.068 46.1914L266.549 42.9648C269.83 42.3724 271.471 41.0736 271.471 39.0684C271.471 37.446 270.66 36.6348 269.037 36.6348H264.143V53H260.52ZM279.674 53H275.955L284.254 33.4492H288.15L296.627 53H292.73L290.502 47.668H284.008L285.252 44.5234H289.189L286.113 37.1816L279.674 53ZM299.02 53V33.4492H302.643L312.965 47.6953V33.4492H316.451V53H312.828L302.506 38.4531V53H299.02ZM318.857 33.4492H322.754L328.25 42.8691L333.418 33.4492H337.178L329.986 46.1641V53H326.363V46.1641L318.857 33.4492Z" fill="white"/>
</g>
<defs>
<linearGradient id="paint0_linear_1_3" x1="25.2468" y1="3.20421" x2="62.832" y2="35.2031" gradientUnits="userSpaceOnUse">
<stop stop-color="#E93075"/>
<stop offset="1" stop-color="#EF153A"/>
</linearGradient>
<linearGradient id="paint1_linear_1_3" x1="17.4274" y1="39.6278" x2="27.2099" y2="66.0289" gradientUnits="userSpaceOnUse">
<stop stop-color="#9F2880"/>
<stop offset="1" stop-color="#D72077"/>
</linearGradient>
<linearGradient id="paint2_linear_1_3" x1="25.2251" y1="63.2794" x2="61.8156" y2="80.688" gradientUnits="userSpaceOnUse">
<stop stop-color="#6E206C"/>
<stop offset="1" stop-color="#B11A71"/>
</linearGradient>
<clipPath id="clip0_1_3">
<rect width="352" height="99" fill="white"/>
</clipPath>
</defs>
</svg>
